<svg width="100" height="100" viewBox="0 0 100 100" fill="none" xmlns="http://www.w3.org/2000/svg">
<g clip-path="url(#clip0_95_556)">
<path d="M0 0H100V98.9691H0V0Z" fill="#EBF6F3"/>
<path d="M67.1074 6.10352e-05C67.1074 6.10352e-05 62.5125 8.14907 65.5254 19.3732C72.0289 22.6779 77.3324 27.9749 80.6781 34.5075C84.0238 41.04 85.2405 48.4738 84.1546 55.7469C83.0686 63.02 79.7355 69.7602 74.6313 75.0047C69.5272 80.2491 62.9132 83.7295 55.7342 84.9485C48.5553 86.1675 41.1787 85.0628 34.6583 81.7923C28.1379 78.5217 22.8073 73.2526 19.4281 66.7377C16.0489 60.2228 14.7939 52.7955 15.8425 45.5168C16.8911 38.2381 20.1895 31.4805 25.2667 26.2093C29.5721 38.556 24.3628 47.7869 24.3628 47.7869H32.752C32.752 47.7869 38.6269 37.3844 32.752 23.8935C26.877 10.4026 32.752 6.10352e-05 32.752 6.10352e-05H0V100H100V6.10352e-05H67.1074Z" fill="#278E6F"/>
<path d="M38.8687 47.7868H47.2572C47.2572 47.7868 53.1329 37.3843 47.2572 23.8934C41.3816 10.4025 47.2572 0 47.2572 0H38.8687C38.8687 0 32.9938 10.4025 38.8687 23.8934C44.7437 37.3843 38.8687 47.7868 38.8687 47.7868Z" fill="#278E6F"/>
<path d="M52.4803 47.7868H60.8689C60.8689 47.7868 66.7445 37.3843 60.8689 23.8934C54.9932 10.4025 60.8689 0 60.8689 0H52.4803C52.4803 0 46.6047 10.4025 52.4803 23.8934C58.356 37.3843 52.4803 47.7868 52.4803 47.7868Z" fill="#278E6F"/>
</g>
<defs>
<clipPath id="clip0_95_556">
<rect width="100" height="100" fill="white"/>
</clipPath>
</defs>
</svg>
