<svg width="101" height="101" viewBox="0 0 101 101" fill="none" xmlns="http://www.w3.org/2000/svg">
<g clip-path="url(#clip0_95_556)">
<path d="M0.5 0.5H100.5V99.4691H0.5V0.5Z" fill="#EBF6F3"/>
<path d="M67.6074 0.500061C67.6074 0.500061 63.0125 8.64907 66.0254 19.8732C72.5289 23.1779 77.8324 28.4749 81.1781 35.0075C84.5238 41.54 85.7405 48.9738 84.6546 56.2469C83.5686 63.52 80.2355 70.2602 75.1313 75.5047C70.0272 80.7491 63.4132 84.2295 56.2342 85.4485C49.0553 86.6675 41.6787 85.5628 35.1583 82.2923C28.6379 79.0217 23.3073 73.7526 19.9281 67.2377C16.5489 60.7228 15.2939 53.2955 16.3425 46.0168C17.3911 38.7381 20.6895 31.9805 25.7667 26.7093C30.0721 39.056 24.8628 48.2869 24.8628 48.2869H33.252C33.252 48.2869 39.1269 37.8844 33.252 24.3935C27.377 10.9026 33.252 0.500061 33.252 0.500061H0.5V100.5H100.5V0.500061H67.6074Z" fill="#278E6F"/>
<path d="M39.3687 48.2868H47.7572C47.7572 48.2868 53.6328 37.8843 47.7572 24.3934C41.8816 10.9025 47.7572 0.5 47.7572 0.5H39.3687C39.3687 0.5 33.4938 10.9025 39.3687 24.3934C45.2436 37.8843 39.3687 48.2868 39.3687 48.2868Z" fill="#278E6F"/>
<path d="M52.9803 48.2868H61.3688C61.3688 48.2868 67.2445 37.8843 61.3688 24.3934C55.4932 10.9025 61.3688 0.5 61.3688 0.5H52.9803C52.9803 0.5 47.1047 10.9025 52.9803 24.3934C58.8559 37.8843 52.9803 48.2868 52.9803 48.2868Z" fill="#278E6F"/>
</g>
<defs>
<clipPath id="clip0_95_556">
<rect x="0.5" y="0.5" width="100" height="100" rx="50" fill="white"/>
</clipPath>
</defs>
</svg>
