<svg width="460" height="141" viewBox="0 0 460 141" fill="none" xmlns="http://www.w3.org/2000/svg">
<path d="M114.903 7.63843V10.9337H121.41V92.3484H114.903V95.6436H147.063V92.3484H140.43V10.9344H147.063V7.63908L114.903 7.63843Z" fill="white"/>
<path d="M222.85 59.7906V54.6427C222.765 43.5097 212.871 30.8193 198.117 30.8193C194.713 30.8323 191.348 31.5484 188.234 32.9229C185.12 34.2973 182.324 36.3004 180.02 38.8065V30.8306H156.282V34.1266H161.336V92.2832H156.297V95.5785H186.776V92.2832H180.023L180.042 58.414C180.042 51.2001 186.54 46.571 192.088 46.571C195.314 46.6245 198.389 47.9449 200.649 50.2469C202.91 52.5488 204.174 55.6476 204.169 58.874V92.2832H198.734V95.5785H229.209V92.2832H222.853L222.85 59.7906Z" fill="white"/>
<path d="M351.761 30.9893C345.19 30.9891 338.766 32.9376 333.302 36.5881C327.839 40.2387 323.58 45.4274 321.066 51.4982C318.551 57.569 317.893 64.2491 319.175 70.6938C320.457 77.1386 323.621 83.0584 328.267 87.7048C332.914 92.3512 338.834 95.5154 345.278 96.7973C351.723 98.0792 358.403 97.4213 364.474 94.9066C370.545 92.3919 375.734 88.1335 379.384 82.6699C383.035 77.2063 384.983 70.7828 384.983 64.2118C384.983 55.4006 381.483 46.9504 375.252 40.7199C369.022 34.4895 360.572 30.9893 351.761 30.9893ZM351.761 79.4994C348.737 79.4994 345.781 78.6028 343.267 76.923C340.753 75.2432 338.794 72.8556 337.637 70.0621C336.479 67.2687 336.177 64.1948 336.767 61.2293C337.356 58.2638 338.812 55.5398 340.951 53.4018C343.089 51.2638 345.813 49.8078 348.778 49.2179C351.744 48.6281 354.817 48.9308 357.611 50.0879C360.404 51.245 362.792 53.2044 364.472 55.7184C366.152 58.2325 367.048 61.1882 367.048 64.2118C367.048 68.2663 365.437 72.1548 362.57 75.0218C359.703 77.8888 355.815 79.4994 351.761 79.4994Z" fill="white"/>
<path d="M453.84 35.9117H459.716V32.6165H427.555V35.9117H432.574L421.394 50.4167L410.213 35.9117H414.689V32.6165H382.528V35.9117H388.946L410.759 64.2123L388.946 92.5123H382.528V95.8076H414.689V92.5123H410.213L421.394 78.0074L432.574 92.5123H427.555V95.8076H459.716V92.5123H453.84L432.027 64.2117L453.84 35.9117Z" fill="white"/>
<path d="M37.6946 46.3203H45.7684C45.7684 46.3203 51.4236 36.4112 45.7684 23.5602C40.1132 10.7091 45.7684 0.800049 45.7684 0.800049H37.6946C37.6946 0.800049 32.0401 10.7091 37.6946 23.5602C43.3492 36.4112 37.6946 46.3203 37.6946 46.3203Z" fill="white"/>
<path d="M50.7956 46.3203H58.8695C58.8695 46.3203 64.5247 36.4112 58.8695 23.5602C53.2143 10.7091 58.8695 0.800049 58.8695 0.800049H50.7956C50.7956 0.800049 45.1404 10.7091 50.7956 23.5602C56.4508 36.4112 50.7956 46.3203 50.7956 46.3203Z" fill="white"/>
<path d="M64.874 0.800049C64.874 0.800049 60.4514 8.56253 63.3514 19.2543C69.6109 22.4023 74.7153 27.448 77.9355 33.6707C81.1557 39.8934 82.3268 46.9746 81.2816 53.9027C80.2364 60.8308 77.0283 67.2513 72.1156 72.247C67.203 77.2427 60.8371 80.558 53.9275 81.7192C47.0179 82.8804 39.918 81.8281 33.6422 78.7126C27.3665 75.5972 22.2359 70.578 18.9834 64.3722C15.731 58.1663 14.5231 51.0913 15.5323 44.1578C16.5416 37.2244 19.7163 30.7873 24.6029 25.7661C28.7468 37.5272 23.733 46.3203 23.733 46.3203H31.8074C31.8074 46.3203 37.462 36.4112 31.8074 23.5602C26.1529 10.7091 31.8074 0.800049 31.8074 0.800049H0.28418V97.0491H96.5326V0.800049H64.874Z" fill="white"/>
<path d="M120.855 119.489L119.217 119.332V117.227H125.168L130.469 132.222H130.494L131.976 132.3V134.508H125.272V132.404L126.259 132.326C126.805 132.273 127.065 132.118 126.883 131.546L126.337 129.935H120.257L119.477 132.222L121.036 132.3V134.508H115.036V132.404L115.893 132.326C116.335 132.273 116.493 132.091 116.673 131.598L120.855 119.489ZM120.88 127.544H125.713L123.377 120.139H123.299L120.88 127.544Z" fill="white"/>
<path d="M140.863 132.351L142.344 132.429V134.508H136.16V132.533L137.018 132.455C137.484 132.404 137.772 132.247 137.772 131.624V118.813C137.772 118.346 137.512 118.213 137.122 118.189L136.212 118.137V115.981H140.863V132.351Z" fill="white"/>
<path d="M151.91 132.351L153.391 132.429V134.508H147.207V132.533L148.064 132.455C148.531 132.404 148.817 132.247 148.817 131.624V124.399C148.817 123.829 148.662 123.647 148.168 123.647L147.259 123.594V121.437H151.91V132.351ZM150.091 115.877C150.35 115.869 150.608 115.914 150.849 116.009C151.09 116.104 151.31 116.247 151.495 116.429C151.679 116.611 151.825 116.829 151.923 117.069C152.021 117.309 152.07 117.566 152.066 117.825C152.068 118.084 152.017 118.34 151.916 118.578C151.814 118.816 151.666 119.03 151.478 119.208C151.29 119.386 151.068 119.523 150.825 119.612C150.582 119.7 150.324 119.738 150.066 119.722C149.809 119.74 149.551 119.703 149.308 119.615C149.066 119.527 148.845 119.389 148.659 119.211C148.473 119.032 148.326 118.817 148.228 118.578C148.13 118.339 148.084 118.083 148.091 117.825C148.083 117.563 148.13 117.302 148.228 117.059C148.327 116.816 148.474 116.596 148.662 116.413C148.85 116.23 149.073 116.088 149.319 115.995C149.564 115.903 149.826 115.863 150.088 115.877H150.091Z" fill="white"/>
<path d="M157.988 121.436H162.38V123.126C162.811 122.475 163.398 121.944 164.089 121.581C164.779 121.217 165.55 121.034 166.33 121.048C167.993 121.048 169.188 121.722 169.786 123.126C170.217 122.475 170.804 121.944 171.495 121.581C172.185 121.217 172.956 121.034 173.736 121.048C176.179 121.048 177.634 122.502 177.634 125.569V132.351L179.115 132.429V134.508H172.931V132.533L173.787 132.455C174.254 132.404 174.516 132.247 174.541 131.624V126.244C174.541 124.66 174.412 123.438 172.749 123.438C171.007 123.438 170.228 124.581 170.228 126.115V132.351L171.657 132.429V134.508H165.524V132.533L166.382 132.455C166.875 132.404 167.134 132.247 167.134 131.598V126.244C167.134 124.66 167.005 123.438 165.342 123.438C163.522 123.438 162.821 124.711 162.821 126.062V132.351L164.221 132.429V134.508H158.088V132.533L158.945 132.455C159.439 132.404 159.699 132.247 159.699 131.598H159.725V124.425C159.725 123.854 159.568 123.646 159.076 123.62L157.983 123.542L157.988 121.436Z" fill="white"/>
<path d="M194.656 124.66C194.656 128.66 190.316 129.337 187.25 129.363C187.354 131.052 188.238 132.43 190.45 132.43C191.634 132.405 192.781 132.004 193.724 131.286L194.712 133.391C193.386 134.36 191.78 134.871 190.138 134.846C185.72 134.846 184.005 132.144 184.005 128.272C184.005 124.426 186.161 121.049 190.423 121.049C192.967 121.048 194.656 122.347 194.656 124.66ZM190.238 123.26C188.16 123.26 187.224 125.26 187.146 127.183C189.069 127.158 191.797 126.716 191.797 124.717C191.81 124.513 191.778 124.308 191.703 124.118C191.628 123.928 191.512 123.758 191.363 123.618C191.214 123.478 191.036 123.373 190.841 123.311C190.647 123.248 190.441 123.23 190.238 123.257V123.26Z" fill="white"/>
<path d="M199.567 121.436H203.959V123.126C204.444 122.468 205.079 121.936 205.811 121.575C206.544 121.213 207.352 121.033 208.169 121.048C210.769 121.048 212.302 122.502 212.302 125.569V132.351L213.782 132.429V134.508H207.598V132.533L208.455 132.455C208.949 132.404 209.209 132.247 209.209 131.598V126.244C209.209 124.53 208.845 123.438 207.075 123.438C206.724 123.423 206.373 123.48 206.045 123.605C205.717 123.731 205.418 123.923 205.167 124.169C204.916 124.415 204.718 124.71 204.586 125.036C204.454 125.362 204.39 125.711 204.399 126.062V132.351L205.88 132.429V134.508H199.695V132.533L200.553 132.455C201.046 132.404 201.307 132.247 201.307 131.598V124.398C201.307 123.828 201.125 123.619 200.657 123.593L199.565 123.515L199.567 121.436Z" fill="white"/>
<path d="M222.098 118.683V121.437H225.554L225.294 123.62H222.094V130.454C222.094 132.04 222.718 132.508 223.784 132.508C224.411 132.489 225.022 132.3 225.551 131.962L226.329 133.962C225.337 134.57 224.193 134.886 223.03 134.871C218.976 134.871 219.002 132.376 219.002 130.558V123.62H217.158L217.417 121.723C219.236 121.567 219.859 120.164 220.405 118.683H222.098Z" fill="white"/>
<path d="M242.237 131.624C242.237 132.196 242.394 132.351 242.887 132.377L243.718 132.429V134.508H239.585V133.001L239.507 132.975C239.11 133.552 238.579 134.024 237.959 134.35C237.339 134.676 236.648 134.846 235.948 134.846C232.281 134.846 230.748 132.246 230.748 128.532C230.748 123.958 232.931 121.048 237.609 121.048C239.189 121.099 240.751 121.406 242.233 121.957L242.237 131.624ZM239.223 123.646C238.584 123.41 237.905 123.295 237.223 123.308C234.757 123.308 233.923 125.62 233.923 128.428C233.923 130.584 234.443 132.637 236.625 132.637C236.945 132.661 237.266 132.622 237.57 132.521C237.875 132.42 238.156 132.26 238.398 132.05C238.64 131.84 238.837 131.583 238.979 131.296C239.121 131.009 239.205 130.696 239.225 130.376L239.223 123.646Z" fill="white"/>
<path d="M258.037 131.365L259.154 133.365C257.989 134.284 256.558 134.804 255.074 134.846L254.763 136.146C256.14 136.25 257.179 136.952 257.179 138.279C257.179 140.177 255.438 140.8 254.009 140.8C253.207 140.797 252.413 140.638 251.67 140.333L252.085 138.983C252.647 139.177 253.234 139.29 253.827 139.32C254.737 139.32 255.074 138.879 255.074 138.358C255.074 137.553 254.165 137.371 252.787 137.371L253.593 134.799C250.397 134.409 248.552 132.07 248.552 128.146C248.552 122.871 251.801 121.053 254.737 121.053C256.158 121.047 257.556 121.415 258.791 122.119V125.498L256.4 125.68V124.425C256.4 123.931 256.322 123.698 255.854 123.542C255.527 123.434 255.185 123.381 254.841 123.386C252.761 123.386 251.697 124.946 251.697 127.83C251.697 130.662 252.735 132.481 255.048 132.481C256.141 132.455 257.194 132.062 258.037 131.365Z" fill="white"/>
<path d="M275.707 131.623C275.707 132.195 275.863 132.351 276.356 132.377L277.188 132.429V134.508H273.054V133.001L272.976 132.975C272.58 133.552 272.048 134.024 271.428 134.35C270.808 134.676 270.118 134.846 269.417 134.845C265.751 134.845 264.217 132.245 264.217 128.532C264.217 123.958 266.4 121.048 271.078 121.048C272.659 121.099 274.221 121.406 275.703 121.957L275.707 131.623ZM266.482 118.111C267.132 116.682 268.12 116.059 269.133 116.059C270.328 116.059 271.628 116.786 272.615 116.786C272.86 116.752 273.092 116.659 273.291 116.514C273.491 116.368 273.651 116.176 273.758 115.954L275.158 116.708C274.558 118.267 273.73 118.968 272.482 118.968C271.415 118.968 270.091 118.267 269.234 118.267C268.938 118.242 268.641 118.3 268.375 118.432C268.109 118.565 267.885 118.769 267.727 119.02L266.482 118.111ZM272.692 123.644C272.053 123.407 271.374 123.292 270.692 123.305C268.226 123.305 267.392 125.618 267.392 128.425C267.392 130.581 267.912 132.634 270.094 132.634C270.414 132.659 270.735 132.619 271.04 132.519C271.344 132.418 271.625 132.258 271.867 132.047C272.109 131.837 272.307 131.581 272.449 131.293C272.591 131.006 272.674 130.693 272.694 130.374L272.692 123.644Z" fill="white"/>
<path d="M288.207 121.048C290.131 121.048 294.003 121.648 294.003 127.622C294.003 132.612 291.222 134.898 287.791 134.898C284.309 134.898 282.023 132.663 282.023 127.96C282.023 122.555 285.531 121.048 288.207 121.048ZM290.832 128.038C290.832 125.128 290.131 123.334 288.051 123.334C285.999 123.334 285.167 125.101 285.167 127.596C285.167 130.013 285.505 132.612 287.999 132.612C290.027 132.612 290.832 130.74 290.832 128.038Z" fill="white"/>
<path d="M319.417 126.4C319.417 126.088 319.262 126.01 318.951 125.984L318.119 125.933V123.906H323.603V126.01L322.173 126.062C322.186 127.653 321.811 129.223 321.082 130.636C322.355 131.703 323.707 132.663 324.357 133.131L322.639 135.391C321.757 134.791 320.587 133.936 319.366 132.949C317.905 134.27 315.981 134.961 314.013 134.871C309.546 134.871 307.88 132.221 307.88 129.596C307.879 128.495 308.173 127.413 308.73 126.463C309.287 125.513 310.088 124.729 311.05 124.192C310.521 123.332 310.242 122.343 310.244 121.334C310.244 118.786 312.038 116.915 315.259 116.915C316.898 116.897 318.517 117.262 319.989 117.982V121.905L317.339 122.087V120.502C317.339 120.008 317.26 119.749 316.793 119.592C316.346 119.457 315.882 119.387 315.415 119.385C313.987 119.385 313.311 120.06 313.311 121.385C313.311 123.568 316.377 126.634 318.923 128.791C319.229 128.03 319.396 127.22 319.417 126.4ZM312.479 126.348C311.984 126.684 311.58 127.138 311.303 127.668C311.026 128.199 310.886 128.79 310.894 129.388C310.894 131.104 311.96 132.351 314.093 132.351C314.666 132.382 315.239 132.289 315.773 132.078C316.306 131.867 316.788 131.544 317.185 131.13C315.45 129.709 313.872 128.106 312.479 126.348Z" fill="white"/>
<path d="M346.209 129.674C346.209 128.038 344.729 127.57 342.909 127.074C340.337 126.373 337.946 125.333 337.946 122.008C337.946 118.839 340.389 116.915 343.975 116.915C345.663 116.902 347.332 117.266 348.861 117.981V121.879L346.209 122.061V120.554C346.209 120.06 346.132 119.853 345.664 119.696C345.113 119.549 344.545 119.479 343.975 119.489C342.442 119.489 341.247 120.112 341.247 121.722C341.247 123.333 342.754 123.776 344.703 124.374C347.067 125.128 349.562 126.192 349.562 129.545C349.562 132.975 346.859 134.846 343.273 134.846C341.465 134.896 339.669 134.531 338.024 133.779V129.673L340.675 129.491V131.076C340.675 131.57 340.753 131.778 341.22 131.934C341.829 132.101 342.46 132.18 343.091 132.168C344.807 132.169 346.209 131.624 346.209 129.674Z" fill="white"/>
<path d="M365.257 124.66C365.257 128.66 360.918 129.337 357.851 129.363C357.955 131.052 358.839 132.43 361.048 132.43C362.232 132.405 363.379 132.004 364.322 131.286L365.309 133.391C363.984 134.361 362.378 134.871 360.736 134.846C356.318 134.846 354.602 132.144 354.602 128.272C354.602 124.426 356.758 121.049 361.02 121.049C363.572 121.048 365.257 122.347 365.257 124.66ZM360.84 123.26C358.762 123.26 357.826 125.26 357.748 127.183C359.671 127.158 362.399 126.716 362.399 124.717C362.412 124.512 362.38 124.308 362.305 124.118C362.23 123.928 362.114 123.757 361.964 123.617C361.815 123.477 361.636 123.373 361.442 123.31C361.247 123.248 361.041 123.23 360.838 123.257L360.84 123.26Z" fill="white"/>
<path d="M371.937 124.399C371.937 123.828 371.781 123.646 371.287 123.62L370.196 123.542V121.436H374.588V123.386C374.916 122.685 375.438 122.093 376.092 121.678C376.746 121.264 377.504 121.045 378.278 121.048C379.143 121.038 379.998 121.234 380.772 121.619V125.491L378.356 125.673V124.478C378.356 124.166 378.303 123.931 378.096 123.828C377.876 123.729 377.635 123.684 377.394 123.695C375.994 123.695 375.029 124.812 375.029 126.32V132.348L377.29 132.452V134.505H370.326V132.53L371.183 132.452C371.677 132.401 371.937 132.244 371.937 131.595V124.399Z" fill="white"/>
<path d="M398.962 121.436V123.464L398.157 123.516C397.819 123.542 397.611 123.649 397.455 124.14L394.104 134.508H390.128L386.489 124.165C386.334 123.698 386.203 123.542 385.736 123.515L384.982 123.464V121.436H391.088V123.515L389.503 123.593L392.18 132.143H392.232L394.832 123.593L393.48 123.515V121.436L398.962 121.436Z" fill="white"/>
<path d="M408.033 132.351L409.514 132.429V134.508H403.329V132.533L404.186 132.455C404.653 132.404 404.94 132.247 404.94 131.624V124.399C404.94 123.828 404.784 123.646 404.29 123.646L403.381 123.594V121.436H408.033V132.351ZM406.213 115.877C406.472 115.869 406.73 115.914 406.971 116.009C407.212 116.104 407.432 116.247 407.617 116.429C407.801 116.611 407.947 116.829 408.045 117.069C408.143 117.309 408.192 117.566 408.188 117.825C408.19 118.084 408.139 118.34 408.038 118.578C407.937 118.816 407.788 119.03 407.6 119.208C407.412 119.386 407.19 119.523 406.947 119.612C406.704 119.7 406.446 119.738 406.188 119.722C405.931 119.739 405.673 119.703 405.43 119.615C405.188 119.527 404.967 119.389 404.781 119.211C404.595 119.032 404.448 118.817 404.35 118.578C404.252 118.339 404.206 118.083 404.213 117.825C404.205 117.563 404.252 117.302 404.351 117.059C404.449 116.815 404.597 116.595 404.785 116.412C404.973 116.229 405.197 116.087 405.443 115.995C405.688 115.902 405.951 115.862 406.213 115.877Z" fill="white"/>
<path d="M423.753 131.365L424.871 133.365C423.705 134.284 422.275 134.803 420.791 134.846L420.478 136.146C421.857 136.25 422.896 136.952 422.896 138.279C422.896 140.177 421.154 140.8 419.726 140.8C418.923 140.797 418.129 140.638 417.387 140.333L417.802 138.983C418.364 139.177 418.95 139.29 419.544 139.32C420.453 139.32 420.791 138.879 420.791 138.358C420.791 137.553 419.882 137.371 418.504 137.371L419.31 134.799C416.114 134.409 414.268 132.07 414.268 128.146C414.268 122.871 417.517 121.053 420.453 121.053C421.874 121.047 423.272 121.415 424.507 122.119V125.498L422.116 125.68V124.425C422.116 123.931 422.038 123.698 421.571 123.542C421.244 123.434 420.902 123.381 420.558 123.386C418.478 123.386 417.413 124.946 417.413 127.83C417.413 130.662 418.452 132.481 420.764 132.481C421.858 132.455 422.91 132.062 423.753 131.365Z" fill="white"/>
<path d="M435.941 121.048C437.864 121.048 441.736 121.648 441.736 127.622C441.736 132.612 438.955 134.898 435.525 134.898C432.043 134.898 429.757 132.663 429.757 127.96C429.757 122.555 433.265 121.048 435.941 121.048ZM438.565 128.038C438.565 125.128 437.864 123.334 435.785 123.334C433.733 123.334 432.901 125.101 432.901 127.596C432.901 130.013 433.239 132.612 435.733 132.612C437.76 132.612 438.565 130.74 438.565 128.038Z" fill="white"/>
<path d="M452.027 123.178C450.909 123.178 450.078 123.698 450.078 124.738C450.078 125.933 451.326 126.296 452.544 126.634C454.571 127.206 456.806 127.856 456.806 130.688C456.806 133.39 454.571 134.845 451.79 134.845C450.159 134.891 448.535 134.617 447.009 134.04V130.432L449.348 130.25V131.498C449.317 131.693 449.361 131.894 449.473 132.058C449.584 132.222 449.754 132.337 449.948 132.38C450.5 132.565 451.08 132.653 451.662 132.64C452.962 132.64 453.716 132.147 453.716 131.055C453.716 129.808 452.572 129.574 451.169 129.21C449.246 128.717 447.141 128.067 447.141 125.182C447.141 122.48 449.428 121.049 452.156 121.049C453.654 121.069 455.127 121.423 456.469 122.088V125.206L454.132 125.388V124.298C454.163 124.102 454.118 123.902 454.006 123.738C453.895 123.573 453.725 123.458 453.532 123.414C453.05 123.238 452.539 123.158 452.027 123.178Z" fill="white"/>
<path d="M277.626 30.9893C272.407 30.9842 267.261 32.2146 262.609 34.5799V10.9345H268.122V7.63916H238.694V10.9345H244.36V92.3485H238.694V95.6437H262.581V95.5771H262.609V93.8438C267.086 96.1132 272.019 97.3385 277.038 97.4278C282.057 97.517 287.03 96.4678 291.585 94.3591C296.141 92.2503 300.159 89.1368 303.338 85.2524C306.517 81.3679 308.775 76.8136 309.941 71.9314C311.107 67.0493 311.152 61.9663 310.073 57.0643C308.993 52.1623 306.816 47.5687 303.706 43.6286C300.597 39.6884 296.634 36.5042 292.117 34.3151C287.6 32.126 282.646 30.9889 277.626 30.9893ZM277.188 79.4995C274.165 79.4995 271.209 78.6028 268.695 76.923C266.181 75.2432 264.221 72.8556 263.064 70.0621C261.907 67.2687 261.605 64.1949 262.194 61.2293C262.784 58.2638 264.24 55.5398 266.378 53.4018C268.516 51.2638 271.24 49.8078 274.206 49.218C277.171 48.6281 280.245 48.9308 283.039 50.0879C285.832 51.245 288.22 53.2044 289.899 55.7184C291.579 58.2325 292.476 61.1882 292.476 64.2118C292.476 68.2663 290.865 72.1548 287.998 75.0218C285.131 77.8888 281.243 79.4995 277.188 79.4995Z" fill="white"/>
</svg>
