<svg width="400" height="401" viewBox="0 0 400 401" fill="none" opacity="0.85" xmlns="http://www.w3.org/2000/svg">
<g filter="url(#filter0_i_152_474)">
<path d="M155.475 189.542H189.029C189.029 189.542 212.531 148.361 189.029 94.9529C165.526 41.5451 189.029 0.36377 189.029 0.36377H155.475C155.475 0.36377 131.975 41.5451 155.475 94.9529C178.974 148.361 155.475 189.542 155.475 189.542Z" fill="#FAFDFC"/>
<path d="M209.921 189.542H243.475C243.475 189.542 266.978 148.361 243.475 94.9529C219.973 41.5451 243.475 0.36377 243.475 0.36377H209.921C209.921 0.36377 186.419 41.5451 209.921 94.9529C233.424 148.361 209.921 189.542 209.921 189.542Z" fill="#FAFDFC"/>
<path d="M268.43 0.834229C268.43 0.834229 250.05 33.0945 262.102 77.5285C288.116 90.6112 309.329 111.581 322.712 137.442C336.095 163.303 340.962 192.732 336.618 221.524C332.275 250.317 318.942 277 298.525 297.762C278.109 318.524 251.653 332.301 222.937 337.127C194.221 341.953 164.715 337.58 138.633 324.632C112.552 311.685 91.2293 290.826 77.7124 265.035C64.1955 239.244 59.1756 209.84 63.3699 181.025C67.5642 152.211 80.7581 125.459 101.067 104.591C118.288 153.469 97.4511 190.012 97.4511 190.012H131.008C131.008 190.012 154.508 148.831 131.008 95.4234C107.508 42.0156 131.008 0.834229 131.008 0.834229H-3.8147e-06V400.837H400V0.834229H268.43Z" fill="#FAFDFC"/>
</g>
<defs>
<filter id="filter0_i_152_474" x="-3.8147e-06" y="0.36377" width="400" height="400.473" filterUnits="userSpaceOnUse" color-interpolation-filters="sRGB">
<feFlood flood-opacity="0" result="BackgroundImageFix"/>
<feBlend mode="normal" in="SourceGraphic" in2="BackgroundImageFix" result="shape"/>
<feColorMatrix in="SourceAlpha" type="matrix" values="0 0 0 0 0 0 0 0 0 0 0 0 0 0 0 0 0 0 127 0" result="hardAlpha"/>
<feOffset/>
<feGaussianBlur stdDeviation="1.90476"/>
<feComposite in2="hardAlpha" operator="arithmetic" k2="-1" k3="1"/>
<feColorMatrix type="matrix" values="0 0 0 0 0 0 0 0 0 0 0 0 0 0 0 0 0 0 0.1 0"/>
<feBlend mode="normal" in2="shape" result="effect1_innerShadow_152_474"/>
</filter>
</defs>
</svg>
