<svg width="394" height="121" viewBox="0 0 394 121" fill="none" xmlns="http://www.w3.org/2000/svg">
<path d="M98.2446 6.83496V9.65945H103.822V79.4433H98.2446V82.2678H125.81V79.4433H120.125V9.66005H125.81V6.83552L98.2446 6.83496Z" fill="white"/>
<path d="M190.77 51.5365V47.1241C190.698 37.5815 182.217 26.7041 169.571 26.7041C166.653 26.7152 163.769 27.3291 161.1 28.5071C158.431 29.6852 156.034 31.4021 154.059 33.5502V26.7138H133.712V29.5389H138.044V79.3873H133.725V82.2118H159.85V79.3873H154.062L154.078 50.3566C154.078 44.1733 159.648 40.2054 164.403 40.2054C167.168 40.2514 169.804 41.3831 171.742 43.3562C173.679 45.3293 174.763 47.9854 174.759 50.7509V79.3873H170.1V82.2118H196.222V79.3873H190.773L190.77 51.5365Z" fill="white"/>
<path d="M301.265 26.8501C295.633 26.85 290.127 28.5201 285.444 31.6491C280.761 34.7782 277.111 39.2256 274.956 44.4291C272.8 49.6326 272.236 55.3584 273.335 60.8825C274.434 66.4065 277.146 71.4807 281.128 75.4633C285.111 79.4459 290.185 82.1581 295.709 83.2568C301.233 84.3556 306.959 83.7916 312.163 81.6362C317.366 79.4808 321.814 75.8308 324.943 71.1477C328.072 66.4646 329.742 60.9587 329.742 55.3265C329.742 47.7741 326.742 40.531 321.401 35.1907C316.061 29.8503 308.818 26.8501 301.265 26.8501ZM301.265 68.4301C298.674 68.4301 296.14 67.6616 293.985 66.2218C291.83 64.7819 290.151 62.7354 289.159 60.341C288.167 57.9467 287.908 55.3119 288.413 52.7701C288.919 50.2282 290.167 47.8934 292 46.0608C293.832 44.2282 296.167 42.9802 298.709 42.4746C301.251 41.969 303.886 42.2285 306.28 43.2203C308.674 44.2121 310.721 45.8916 312.161 48.0465C313.601 50.2014 314.369 52.7348 314.369 55.3265C314.369 58.8018 312.988 62.1348 310.531 64.5922C308.074 67.0496 304.741 68.4301 301.265 68.4301Z" fill="white"/>
<path d="M388.762 31.0696H393.799V28.2451H366.232V31.0696H370.534L360.951 43.5024L351.368 31.0696H355.204V28.2451H327.637V31.0696H333.138L351.836 55.3272L333.139 79.5843H327.638V82.4088H355.204V79.5843H351.368L360.951 67.1515L370.534 79.5843H366.232V82.4088H393.799V79.5843H388.762L370.065 55.3267L388.762 31.0696Z" fill="white"/>
<path d="M32.0661 39.9904H38.9865C38.9865 39.9904 43.8338 31.4969 38.9865 20.4818C34.1392 9.46662 38.9865 0.973145 38.9865 0.973145H32.0661C32.0661 0.973145 27.2194 9.46662 32.0661 20.4818C36.9128 31.4969 32.0661 39.9904 32.0661 39.9904Z" fill="white"/>
<path d="M43.2956 39.9904H50.216C50.216 39.9904 55.0633 31.4969 50.216 20.4818C45.3687 9.46662 50.216 0.973145 50.216 0.973145H43.2956C43.2956 0.973145 38.4483 9.46662 43.2956 20.4818C48.1429 31.4969 43.2956 39.9904 43.2956 39.9904Z" fill="white"/>
<path d="M55.3627 0.973145C55.3627 0.973145 51.5719 7.62668 54.0575 16.791C59.4228 19.4893 63.7981 23.8142 66.5583 29.1479C69.3184 34.4816 70.3223 40.5512 69.4263 46.4896C68.5304 52.4279 65.7806 57.9312 61.5698 62.2132C57.3589 66.4952 51.9025 69.3369 45.9799 70.3322C40.0574 71.3275 33.9718 70.4255 28.5926 67.7552C23.2134 65.0848 18.8157 60.7827 16.0279 55.4634C13.2401 50.1441 12.2048 44.0798 13.0698 38.1368C13.9349 32.1939 16.6561 26.6764 20.8446 22.3726C24.3966 32.4534 20.0989 39.9904 20.0989 39.9904H27.0199C27.0199 39.9904 31.8667 31.4969 27.0199 20.4818C22.1732 9.46662 27.0199 0.973145 27.0199 0.973145H0V83.4721H82.4986V0.973145H55.3627Z" fill="white"/>
<path d="M103.346 102.705L101.942 102.571V100.767H107.043L111.587 113.619H111.609L112.879 113.686V115.579H107.132V113.775L107.979 113.708C108.446 113.663 108.669 113.53 108.513 113.04L108.046 111.659H102.834L102.166 113.619L103.502 113.686V115.579H98.3589V113.775L99.0938 113.708C99.4726 113.663 99.6081 113.507 99.7623 113.085L103.346 102.705ZM103.368 109.61H107.511L105.508 103.262H105.442L103.368 109.61Z" fill="white"/>
<path d="M120.496 113.73L121.766 113.797V115.579H116.465V113.886L117.2 113.819C117.6 113.775 117.846 113.641 117.846 113.106V102.126C117.846 101.726 117.624 101.611 117.289 101.591L116.51 101.546V99.6982H120.496V113.73Z" fill="white"/>
<path d="M129.965 113.73L131.235 113.797V115.579H125.934V113.886L126.669 113.819C127.069 113.775 127.314 113.641 127.314 113.107V106.914C127.314 106.425 127.181 106.269 126.758 106.269L125.978 106.224V104.375H129.965V113.73ZM128.406 99.6093C128.628 99.6028 128.849 99.6415 129.056 99.7228C129.263 99.8042 129.451 99.9266 129.609 100.083C129.767 100.239 129.892 100.425 129.976 100.631C130.061 100.837 130.102 101.057 130.099 101.279C130.1 101.501 130.057 101.721 129.97 101.924C129.883 102.128 129.756 102.312 129.595 102.465C129.434 102.617 129.244 102.735 129.035 102.811C128.827 102.886 128.606 102.919 128.384 102.905C128.164 102.92 127.943 102.889 127.735 102.814C127.527 102.738 127.338 102.62 127.178 102.467C127.019 102.314 126.893 102.129 126.809 101.925C126.725 101.72 126.685 101.5 126.691 101.279C126.685 101.055 126.725 100.831 126.809 100.623C126.894 100.415 127.02 100.226 127.181 100.069C127.342 99.912 127.534 99.7901 127.744 99.711C127.954 99.6319 128.179 99.5972 128.403 99.6093H128.406Z" fill="white"/>
<path d="M135.175 104.375H138.94V105.823C139.309 105.265 139.812 104.81 140.404 104.498C140.996 104.187 141.656 104.03 142.325 104.042C143.75 104.042 144.775 104.62 145.287 105.823C145.657 105.265 146.16 104.81 146.752 104.498C147.344 104.187 148.005 104.03 148.673 104.042C150.767 104.042 152.014 105.288 152.014 107.917V113.73L153.284 113.797V115.579H147.983V113.886L148.717 113.819C149.117 113.775 149.342 113.641 149.363 113.107V108.496C149.363 107.138 149.253 106.091 147.827 106.091C146.334 106.091 145.666 107.07 145.666 108.385V113.73L146.891 113.797V115.579H141.634V113.886L142.369 113.819C142.792 113.775 143.014 113.641 143.014 113.085V108.496C143.014 107.138 142.904 106.091 141.478 106.091C139.918 106.091 139.317 107.182 139.317 108.34V113.73L140.517 113.797V115.579H135.26V113.886L135.995 113.819C136.419 113.775 136.641 113.641 136.641 113.085H136.664V106.936C136.664 106.447 136.529 106.269 136.107 106.246L135.171 106.18L135.175 104.375Z" fill="white"/>
<path d="M166.604 107.138C166.604 110.566 162.885 111.147 160.256 111.169C160.345 112.617 161.103 113.798 162.999 113.798C164.015 113.776 164.997 113.433 165.805 112.818L166.652 114.622C165.516 115.453 164.139 115.891 162.732 115.869C158.945 115.869 157.475 113.553 157.475 110.234C157.475 106.937 159.323 104.042 162.976 104.042C165.157 104.042 166.604 105.156 166.604 107.138ZM162.818 105.938C161.036 105.938 160.235 107.652 160.168 109.301C161.816 109.279 164.154 108.901 164.154 107.186C164.165 107.012 164.138 106.837 164.074 106.674C164.009 106.511 163.91 106.364 163.782 106.245C163.654 106.125 163.501 106.035 163.335 105.982C163.168 105.928 162.992 105.912 162.818 105.935V105.938Z" fill="white"/>
<path d="M170.814 104.375H174.579V105.823C174.994 105.259 175.538 104.803 176.166 104.494C176.794 104.184 177.487 104.029 178.187 104.042C180.415 104.042 181.729 105.289 181.729 107.917V113.73L182.999 113.797V115.579H177.698V113.886L178.432 113.819C178.856 113.775 179.078 113.641 179.078 113.085V108.496C179.078 107.026 178.767 106.091 177.25 106.091C176.949 106.078 176.648 106.126 176.367 106.234C176.085 106.342 175.829 106.506 175.614 106.717C175.399 106.928 175.229 107.181 175.116 107.46C175.003 107.739 174.948 108.039 174.955 108.34V113.73L176.225 113.797V115.579H170.924V113.886L171.659 113.819C172.082 113.775 172.305 113.641 172.305 113.085V106.914C172.305 106.425 172.149 106.246 171.749 106.223L170.813 106.157L170.814 104.375Z" fill="white"/>
<path d="M190.126 102.015V104.376H193.089L192.866 106.247H190.123V112.105C190.123 113.464 190.657 113.865 191.571 113.865C192.109 113.849 192.632 113.687 193.086 113.397L193.753 115.111C192.903 115.633 191.922 115.903 190.925 115.891C187.45 115.891 187.473 113.753 187.473 112.194V106.247H185.892L186.114 104.621C187.673 104.488 188.207 103.285 188.675 102.015H190.126Z" fill="white"/>
<path d="M207.388 113.107C207.388 113.598 207.523 113.731 207.945 113.753L208.658 113.798V115.58H205.115V114.288L205.048 114.266C204.708 114.76 204.253 115.165 203.721 115.444C203.19 115.724 202.598 115.869 201.998 115.869C198.855 115.869 197.541 113.641 197.541 110.457C197.541 106.537 199.411 104.042 203.421 104.042C204.776 104.086 206.114 104.349 207.385 104.822L207.388 113.107ZM204.805 106.27C204.257 106.067 203.675 105.968 203.091 105.98C200.976 105.98 200.262 107.962 200.262 110.368C200.262 112.216 200.707 113.976 202.578 113.976C202.852 113.997 203.127 113.963 203.388 113.877C203.649 113.79 203.89 113.653 204.097 113.473C204.305 113.293 204.474 113.073 204.596 112.827C204.718 112.58 204.789 112.312 204.807 112.038L204.805 106.27Z" fill="white"/>
<path d="M220.931 112.885L221.888 114.599C220.889 115.387 219.663 115.833 218.391 115.869L218.125 116.983C219.305 117.072 220.195 117.674 220.195 118.811C220.195 120.438 218.703 120.972 217.479 120.972C216.791 120.969 216.11 120.834 215.474 120.572L215.83 119.415C216.311 119.581 216.814 119.678 217.323 119.704C218.102 119.704 218.391 119.326 218.391 118.879C218.391 118.189 217.612 118.033 216.431 118.033L217.122 115.828C214.382 115.494 212.801 113.489 212.801 110.126C212.801 105.605 215.586 104.046 218.102 104.046C219.321 104.041 220.519 104.357 221.577 104.96V107.856L219.528 108.012V106.937C219.528 106.513 219.461 106.313 219.06 106.18C218.78 106.087 218.486 106.042 218.191 106.046C216.409 106.046 215.497 107.383 215.497 109.855C215.497 112.283 216.387 113.842 218.369 113.842C219.306 113.82 220.209 113.483 220.931 112.885Z" fill="white"/>
<path d="M236.077 113.107C236.077 113.597 236.21 113.73 236.633 113.753L237.346 113.797V115.579H233.803V114.287L233.736 114.265C233.396 114.76 232.94 115.164 232.409 115.444C231.877 115.723 231.286 115.869 230.685 115.868C227.543 115.868 226.228 113.64 226.228 110.457C226.228 106.536 228.099 104.042 232.109 104.042C233.464 104.086 234.803 104.349 236.073 104.821L236.077 113.107ZM228.169 101.524C228.727 100.3 229.573 99.7655 230.442 99.7655C231.467 99.7655 232.58 100.389 233.426 100.389C233.636 100.36 233.835 100.28 234.006 100.156C234.177 100.031 234.315 99.8663 234.406 99.6758L235.606 100.322C235.092 101.659 234.382 102.26 233.312 102.26C232.398 102.26 231.263 101.659 230.528 101.659C230.274 101.637 230.02 101.686 229.792 101.8C229.564 101.914 229.372 102.089 229.237 102.304L228.169 101.524ZM233.493 106.267C232.945 106.064 232.363 105.966 231.779 105.977C229.664 105.977 228.949 107.959 228.949 110.365C228.949 112.213 229.395 113.973 231.266 113.973C231.54 113.994 231.815 113.96 232.076 113.874C232.337 113.788 232.578 113.65 232.785 113.47C232.993 113.29 233.162 113.07 233.284 112.824C233.406 112.578 233.477 112.31 233.494 112.035L233.493 106.267Z" fill="white"/>
<path d="M246.791 104.042C248.44 104.042 251.759 104.557 251.759 109.678C251.759 113.954 249.375 115.914 246.435 115.914C243.45 115.914 241.49 113.998 241.49 109.967C241.49 105.334 244.498 104.042 246.791 104.042ZM249.041 110.034C249.041 107.54 248.44 106.002 246.658 106.002C244.898 106.002 244.186 107.517 244.186 109.655C244.186 111.727 244.475 113.954 246.613 113.954C248.351 113.954 249.041 112.35 249.041 110.034Z" fill="white"/>
<path d="M273.543 108.631C273.543 108.363 273.41 108.296 273.143 108.274L272.43 108.23V106.492H277.13V108.296L275.905 108.341C275.916 109.704 275.595 111.05 274.969 112.261C276.06 113.176 277.219 113.998 277.776 114.4L276.304 116.337C275.548 115.823 274.545 115.09 273.499 114.244C272.246 115.376 270.597 115.968 268.91 115.892C265.082 115.892 263.653 113.62 263.653 111.37C263.653 110.426 263.904 109.499 264.382 108.684C264.86 107.87 265.546 107.198 266.371 106.738C265.918 106.001 265.678 105.153 265.68 104.288C265.68 102.104 267.217 100.501 269.979 100.501C271.383 100.485 272.771 100.798 274.033 101.415V104.778L271.761 104.934V103.575C271.761 103.152 271.694 102.93 271.293 102.795C270.91 102.679 270.513 102.619 270.112 102.618C268.888 102.618 268.308 103.196 268.308 104.332C268.308 106.203 270.937 108.831 273.119 110.68C273.381 110.027 273.525 109.333 273.543 108.631ZM267.595 108.586C267.171 108.874 266.825 109.263 266.587 109.718C266.35 110.172 266.23 110.679 266.237 111.192C266.237 112.663 267.151 113.731 268.979 113.731C269.47 113.758 269.961 113.678 270.419 113.497C270.876 113.317 271.289 113.04 271.63 112.685C270.142 111.467 268.79 110.093 267.595 108.586Z" fill="white"/>
<path d="M296.507 111.437C296.507 110.034 295.239 109.633 293.679 109.209C291.474 108.607 289.424 107.716 289.424 104.866C289.424 102.149 291.518 100.5 294.592 100.5C296.039 100.489 297.469 100.802 298.78 101.415V104.756L296.507 104.912V103.62C296.507 103.196 296.441 103.018 296.04 102.884C295.568 102.758 295.081 102.698 294.592 102.706C293.278 102.706 292.254 103.241 292.254 104.621C292.254 106.002 293.546 106.381 295.216 106.894C297.243 107.54 299.381 108.453 299.381 111.326C299.381 114.266 297.064 115.87 293.991 115.87C292.441 115.913 290.902 115.6 289.491 114.955V111.436L291.763 111.28V112.639C291.763 113.062 291.831 113.24 292.231 113.374C292.753 113.517 293.293 113.585 293.835 113.574C295.305 113.575 296.507 113.108 296.507 111.437Z" fill="white"/>
<path d="M312.834 107.138C312.834 110.566 309.114 111.147 306.486 111.169C306.575 112.617 307.333 113.798 309.226 113.798C310.241 113.776 311.224 113.433 312.032 112.818L312.879 114.622C311.742 115.453 310.366 115.891 308.958 115.869C305.172 115.869 303.701 113.553 303.701 110.234C303.701 106.937 305.549 104.042 309.202 104.042C311.389 104.042 312.834 105.156 312.834 107.138ZM309.048 105.938C307.266 105.938 306.464 107.652 306.397 109.301C308.046 109.279 310.384 108.901 310.384 107.186C310.396 107.012 310.368 106.836 310.304 106.673C310.239 106.51 310.139 106.364 310.011 106.244C309.884 106.124 309.731 106.034 309.564 105.981C309.397 105.928 309.22 105.912 309.046 105.935L309.048 105.938Z" fill="white"/>
<path d="M318.559 106.915C318.559 106.426 318.426 106.27 318.002 106.247L317.067 106.181V104.376H320.832V106.047C321.113 105.446 321.561 104.938 322.121 104.583C322.681 104.228 323.331 104.041 323.995 104.043C324.736 104.034 325.469 104.202 326.133 104.533V107.851L324.062 108.007V106.983C324.062 106.715 324.016 106.514 323.839 106.426C323.65 106.341 323.444 106.302 323.237 106.312C322.037 106.312 321.21 107.27 321.21 108.562V113.729L323.148 113.818V115.578H317.179V113.885L317.913 113.818C318.337 113.774 318.559 113.64 318.559 113.084V106.915Z" fill="white"/>
<path d="M341.724 104.375V106.113L341.034 106.157C340.744 106.18 340.566 106.271 340.432 106.692L337.56 115.579H334.152L331.033 106.713C330.9 106.313 330.788 106.179 330.387 106.156L329.741 106.112V104.374H334.975V106.156L333.616 106.223L335.91 113.551H335.955L338.184 106.223L337.025 106.156V104.374L341.724 104.375Z" fill="white"/>
<path d="M349.499 113.73L350.768 113.797V115.579H345.467V113.886L346.201 113.819C346.601 113.775 346.848 113.641 346.848 113.107V106.914C346.848 106.425 346.714 106.269 346.291 106.269L345.511 106.224V104.375H349.499V113.73ZM347.939 99.6094C348.161 99.603 348.382 99.6416 348.589 99.7229C348.796 99.8043 348.984 99.9267 349.142 100.083C349.3 100.239 349.425 100.425 349.509 100.631C349.593 100.837 349.635 101.057 349.632 101.28C349.633 101.501 349.59 101.721 349.503 101.925C349.416 102.129 349.289 102.312 349.128 102.465C348.967 102.617 348.777 102.735 348.568 102.811C348.36 102.887 348.139 102.919 347.917 102.905C347.697 102.92 347.476 102.889 347.268 102.814C347.06 102.738 346.871 102.62 346.711 102.467C346.552 102.314 346.426 102.129 346.342 101.925C346.258 101.72 346.218 101.501 346.224 101.28C346.218 101.055 346.258 100.831 346.343 100.622C346.427 100.414 346.554 100.225 346.715 100.068C346.876 99.9112 347.068 99.7894 347.279 99.7104C347.489 99.6314 347.714 99.597 347.939 99.6094Z" fill="white"/>
<path d="M362.973 112.885L363.931 114.599C362.932 115.387 361.706 115.832 360.434 115.869L360.166 116.983C361.348 117.072 362.238 117.674 362.238 118.811C362.238 120.438 360.746 120.972 359.521 120.972C358.833 120.969 358.153 120.834 357.517 120.572L357.873 119.415C358.354 119.581 358.857 119.678 359.365 119.704C360.145 119.704 360.434 119.326 360.434 118.879C360.434 118.189 359.655 118.033 358.474 118.033L359.165 115.828C356.425 115.494 354.844 113.489 354.844 110.126C354.844 105.605 357.628 104.046 360.145 104.046C361.363 104.041 362.561 104.357 363.619 104.96V107.856L361.57 108.012V106.937C361.57 106.513 361.503 106.313 361.103 106.18C360.823 106.087 360.529 106.042 360.234 106.046C358.452 106.046 357.539 107.383 357.539 109.855C357.539 112.283 358.429 113.842 360.411 113.842C361.349 113.82 362.251 113.483 362.973 112.885Z" fill="white"/>
<path d="M373.42 104.042C375.068 104.042 378.387 104.557 378.387 109.678C378.387 113.954 376.004 115.914 373.064 115.914C370.079 115.914 368.119 113.998 368.119 109.967C368.119 105.334 371.126 104.042 373.42 104.042ZM375.669 110.034C375.669 107.54 375.068 106.002 373.286 106.002C371.527 106.002 370.815 107.517 370.815 109.655C370.815 111.727 371.104 113.954 373.242 113.954C374.979 113.954 375.669 112.35 375.669 110.034Z" fill="white"/>
<path d="M387.208 105.867C386.25 105.867 385.537 106.312 385.537 107.204C385.537 108.228 386.607 108.54 387.652 108.829C389.389 109.319 391.305 109.876 391.305 112.303C391.305 114.62 389.389 115.867 387.005 115.867C385.607 115.906 384.215 115.672 382.907 115.177V112.084L384.912 111.928V112.998C384.885 113.166 384.923 113.337 385.019 113.478C385.114 113.618 385.26 113.717 385.426 113.754C385.899 113.913 386.396 113.988 386.896 113.977C388.009 113.977 388.656 113.554 388.656 112.618C388.656 111.55 387.675 111.349 386.473 111.037C384.824 110.614 383.02 110.057 383.02 107.585C383.02 105.268 384.98 104.042 387.319 104.042C388.602 104.059 389.866 104.363 391.016 104.932V107.605L389.012 107.761V106.827C389.039 106.659 389 106.487 388.905 106.346C388.809 106.206 388.664 106.107 388.498 106.069C388.085 105.918 387.647 105.849 387.208 105.867Z" fill="white"/>
<path d="M237.722 26.8488C233.248 26.8444 228.837 27.8991 224.849 29.9264V9.659H229.575V6.83447H204.351V9.659H209.208V79.4422H204.351V82.2667H224.826V82.2096H224.849V80.7239C228.687 82.6691 232.916 83.7194 237.217 83.7959C241.519 83.8724 245.782 82.9731 249.687 81.1656C253.591 79.3581 257.035 76.6894 259.76 73.3599C262.485 70.0304 264.42 66.1266 265.42 61.942C266.42 57.7573 266.458 53.4005 265.533 49.1988C264.607 44.997 262.742 41.0597 260.076 37.6824C257.411 34.3052 254.014 31.5759 250.143 29.6995C246.271 27.8231 242.024 26.8485 237.722 26.8488ZM237.346 68.4288C234.755 68.4288 232.221 67.6603 230.066 66.2204C227.911 64.7806 226.232 62.7341 225.24 60.3397C224.248 57.9453 223.989 55.3106 224.494 52.7688C225 50.2269 226.248 47.8921 228.081 46.0595C229.913 44.2269 232.248 42.9789 234.79 42.4733C237.332 41.9677 239.966 42.2272 242.361 43.219C244.755 44.2108 246.802 45.8903 248.242 48.0452C249.681 50.2 250.45 52.7335 250.45 55.3252C250.45 58.8005 249.069 62.1334 246.612 64.5909C244.155 67.0483 240.822 68.4288 237.346 68.4288Z" fill="white"/>
</svg>
